<svg xmlns="http://www.w3.org/2000/svg" width="230.323" height="283.119" viewBox="0 0 230.323 283.119">
  <g id="icon" transform="translate(0.023)">
    <path id="Fill-2" d="M192.3,150.6c-.3-35.8,29.3-53.2,30.6-54C206.1,72.2,180.1,68.8,171,68.5c-21.8-2.3-43,13.1-54.1,13.1-11.3,0-28.5-12.8-46.9-12.5-23.7.4-46,14.1-58.1,35.5-25.1,43.5-6.4,107.5,17.7,142.7,12.1,17.2,26.1,36.5,44.6,35.8,18-.7,24.8-11.5,46.5-11.5,21.6,0,27.9,11.5,46.7,11.1,19.4-.3,31.5-17.3,43.2-34.7,13.9-19.7,19.5-39.2,19.7-40.2-.5-.2-37.6-14.4-38-57.2" fill="#fff"/>
    <path id="Fill-3" d="M156.8,45.4c9.7-12.1,16.3-28.6,14.5-45.4-14,.6-31.6,9.7-41.7,21.6-8.9,10.5-16.9,27.6-14.9,43.7,15.8,1.2,32-8,42.1-19.9" fill="#fff"/>
  </g>
</svg>
